 <svg width="100%" height="100%" id="svg" viewBox="0 0 1440 390" xmlns="http://www.w3.org/2000/svg"
        class="transition duration-300 ease-in-out delay-150">
        <defs>
          <linearGradient id="gradient" x1="0%" y1="50%" x2="100%" y2="50%">
            <stop offset="5%" stop-color="#305d52"></stop>
            <stop offset="95%" stop-color="#153f38"></stop>
          </linearGradient>
        </defs>
        <path
          d="M 0,400 L 0,100 C 135.19999999999993,115.86666666666667 270.39999999999986,131.73333333333335 450,120 C 629.6000000000001,108.26666666666667 853.6000000000001,68.93333333333334 1026,61 C 1198.3999999999999,53.06666666666667 1319.1999999999998,76.53333333333333 1440,100 L 1440,400 L 0,400 Z"
          stroke="none" stroke-width="0" fill="url(#gradient)" fill-opacity="0.53"
          class="transition-all duration-300 ease-in-out delay-150 path-0"></path>
        <defs>
          <linearGradient id="gradient" x1="0%" y1="50%" x2="100%" y2="50%">
            <stop offset="5%" stop-color="#305d52"></stop>
            <stop offset="95%" stop-color="#153f38"></stop>
          </linearGradient>
        </defs>
        <path
          d="M 0,400 L 0,233 C 150.53333333333336,249.39999999999998 301.0666666666667,265.79999999999995 468,252 C 634.9333333333333,238.20000000000002 818.2666666666667,194.20000000000002 983,186 C 1147.7333333333333,177.79999999999998 1293.8666666666668,205.39999999999998 1440,233 L 1440,400 L 0,400 Z"
          stroke="none" stroke-width="0" fill="url(#gradient)" fill-opacity="1"
          class="transition-all duration-300 ease-in-out delay-150 path-1"></path>
      </svg>